<svg width="720" height="360" viewBox="0 0 720 360" fill="none" xmlns="http://www.w3.org/2000/svg">
<mask id="path-1-inside-1_44_28" fill="white">
<path fill-rule="evenodd" clip-rule="evenodd" d="M8 360C3.58172 360 0 356.418 0 352L0 8C0 3.58172 3.58173 0 8 0L458 0C462.418 0 465.831 3.82432 468.081 7.62692C470.692 12.0403 475.5 15 481 15C486.5 15 491.308 12.0403 493.919 7.62692C496.169 3.82432 499.582 0 504 0H712C716.418 0 720 3.58172 720 8V352C720 356.418 716.418 360 712 360H504C499.582 360 496.169 356.176 493.919 352.373C491.308 347.96 486.5 345 481 345C475.5 345 470.692 347.96 468.081 352.373C465.831 356.176 462.418 360 458 360H8Z"/>
</mask>
<path fill-rule="evenodd" clip-rule="evenodd" d="M8 360C3.58172 360 0 356.418 0 352L0 8C0 3.58172 3.58173 0 8 0L458 0C462.418 0 465.831 3.82432 468.081 7.62692C470.692 12.0403 475.5 15 481 15C486.5 15 491.308 12.0403 493.919 7.62692C496.169 3.82432 499.582 0 504 0H712C716.418 0 720 3.58172 720 8V352C720 356.418 716.418 360 712 360H504C499.582 360 496.169 356.176 493.919 352.373C491.308 347.96 486.5 345 481 345C475.5 345 470.692 347.96 468.081 352.373C465.831 356.176 462.418 360 458 360H8Z" fill="#202020"/>
<path d="M468.081 352.373L472.384 354.919L468.081 352.373ZM493.919 352.373L498.222 349.827L493.919 352.373ZM493.919 7.62692L489.616 5.08095L493.919 7.62692ZM468.081 7.62692L463.778 10.1729L468.081 7.62692ZM8 0L8 5L8 0ZM-5 8L-5 352H5L5 8H-5ZM458 -5L8 -5L8 5L458 5V-5ZM481 10C477.34 10 474.133 8.0363 472.384 5.08095L463.778 10.1729C467.252 16.0444 473.661 20 481 20V10ZM489.616 5.08095C487.867 8.0363 484.66 10 481 10V20C488.339 20 494.748 16.0444 498.222 10.1729L489.616 5.08095ZM712 -5H504V5H712V-5ZM725 352V8H715V352H725ZM504 365H712V355H504V365ZM481 350C484.66 350 487.867 351.964 489.616 354.919L498.222 349.827C494.748 343.956 488.339 340 481 340V350ZM472.384 354.919C474.133 351.964 477.34 350 481 350V340C473.661 340 467.252 343.956 463.778 349.827L472.384 354.919ZM8 365H458V355H8V365ZM463.778 349.827C462.814 351.456 461.731 352.856 460.618 353.8C459.53 354.724 458.678 355 458 355V365C461.741 365 464.804 363.364 467.089 361.425C469.35 359.506 471.098 357.093 472.384 354.919L463.778 349.827ZM504 355C503.322 355 502.47 354.724 501.382 353.8C500.269 352.856 499.186 351.456 498.222 349.827L489.616 354.919C490.902 357.093 492.65 359.506 494.911 361.425C497.196 363.364 500.259 365 504 365V355ZM715 352C715 353.657 713.657 355 712 355V365C719.18 365 725 359.18 725 352H715ZM498.222 10.1729C499.186 8.54435 500.269 7.1438 501.382 6.19977C502.47 5.27631 503.322 5 504 5V-5C500.259 -5 497.196 -3.36415 494.911 -1.4248C492.65 0.493975 490.902 2.90689 489.616 5.08095L498.222 10.1729ZM458 5C458.678 5 459.53 5.27631 460.618 6.19977C461.731 7.1438 462.814 8.54435 463.778 10.1729L472.384 5.08095C471.098 2.90689 469.35 0.493975 467.089 -1.4248C464.804 -3.36415 461.741 -5 458 -5V5ZM-5 352C-5 359.18 0.820299 365 8 365V355C6.34315 355 5 353.657 5 352H-5ZM712 5C713.657 5 715 6.34315 715 8H725C725 0.820297 719.18 -5 712 -5V5ZM5 8C5 6.34315 6.34315 5 8 5L8 -5C0.820305 -5 -5 0.820296 -5 8H5Z" fill="url(#paint0_linear_44_28)" mask="url(#path-1-inside-1_44_28)"/>
<line x1="480" y1="340" x2="480" y2="22" stroke="#333333" stroke-width="2" stroke-dasharray="10 10"/>
<defs>
<linearGradient id="paint0_linear_44_28" x1="0" y1="180" x2="720" y2="180" gradientUnits="userSpaceOnUse">
<stop stop-color="#17408B"/>
<stop offset="1" stop-color="#C9082A"/>
</linearGradient>
</defs>
</svg>
