<svg width="360" height="720" viewBox="0 0 360 720" fill="none" xmlns="http://www.w3.org/2000/svg">
<mask id="path-1-inside-1_33_8" fill="white">
<path fill-rule="evenodd" clip-rule="evenodd" d="M226.8 1.8C226.8 26.6528 206.653 46.8 181.8 46.8C156.947 46.8 136.8 26.6528 136.8 1.8C136.8 1.19716 136.812 0.597084 136.835 0H0V720H136.835C136.812 719.403 136.8 718.803 136.8 718.2C136.8 693.347 156.947 673.2 181.8 673.2C206.653 673.2 226.8 693.347 226.8 718.2C226.8 718.803 226.788 719.403 226.765 720H360V0H226.765C226.788 0.597084 226.8 1.19716 226.8 1.8Z"/>
</mask>
<path fill-rule="evenodd" clip-rule="evenodd" d="M226.8 1.8C226.8 26.6528 206.653 46.8 181.8 46.8C156.947 46.8 136.8 26.6528 136.8 1.8C136.8 1.19716 136.812 0.597084 136.835 0H0V720H136.835C136.812 719.403 136.8 718.803 136.8 718.2C136.8 693.347 156.947 673.2 181.8 673.2C206.653 673.2 226.8 693.347 226.8 718.2C226.8 718.803 226.788 719.403 226.765 720H360V0H226.765C226.788 0.597084 226.8 1.19716 226.8 1.8Z" fill="#202020"/>
<path d="M136.835 0L141.831 0.196498L142.036 -5H136.835V0ZM0 0V-5H-5V0H0ZM0 720H-5V725H0V720ZM136.835 720V725H142.036L141.831 719.804L136.835 720ZM226.765 720L221.769 719.804L221.564 725H226.765V720ZM360 720V725H365V720H360ZM360 0H365V-5H360V0ZM226.765 0V-5H221.564L221.769 0.196498L226.765 0ZM181.8 51.8C209.414 51.8 231.8 29.4142 231.8 1.8H221.8C221.8 23.8914 203.891 41.8 181.8 41.8V51.8ZM131.8 1.8C131.8 29.4142 154.186 51.8 181.8 51.8V41.8C159.709 41.8 141.8 23.8914 141.8 1.8H131.8ZM131.839 -0.196498C131.813 0.466009 131.8 1.13159 131.8 1.8H141.8C141.8 1.26272 141.811 0.72816 141.831 0.196498L131.839 -0.196498ZM0 5H136.835V-5H0V5ZM5 720V0H-5V720H5ZM136.835 715H0V725H136.835V715ZM141.831 719.804C141.811 719.272 141.8 718.737 141.8 718.2H131.8C131.8 718.868 131.813 719.534 131.839 720.196L141.831 719.804ZM141.8 718.2C141.8 696.109 159.709 678.2 181.8 678.2V668.2C154.186 668.2 131.8 690.586 131.8 718.2H141.8ZM181.8 678.2C203.891 678.2 221.8 696.109 221.8 718.2H231.8C231.8 690.586 209.414 668.2 181.8 668.2V678.2ZM221.8 718.2C221.8 718.737 221.789 719.272 221.769 719.804L231.761 720.196C231.787 719.534 231.8 718.868 231.8 718.2H221.8ZM360 715H226.765V725H360V715ZM355 0V720H365V0H355ZM226.765 5H360V-5H226.765V5ZM231.8 1.8C231.8 1.13159 231.787 0.466009 231.761 -0.196498L221.769 0.196498C221.789 0.72816 221.8 1.26272 221.8 1.8H231.8Z" fill="url(#paint0_linear_33_8)" mask="url(#path-1-inside-1_33_8)"/>
<defs>
<linearGradient id="paint0_linear_33_8" x1="180" y1="0" x2="180" y2="720" gradientUnits="userSpaceOnUse">
<stop stop-color="#17408B"/>
<stop offset="1" stop-color="#C9082A"/>
</linearGradient>
</defs>
</svg>
